<svg
  width="19"
  height="19"
  viewBox="0 0 19 19"
  fill="none"
  xmlns="http://www.w3.org/2000/svg"
>
  <g clip-path="url(#clip0_2_890)">
    <path
      d="M17.7045 7.77273H11.2272V1.29545C11.2272 0.580361 10.6469 0 9.93177 0H9.06818C8.35309 0 7.77273 0.580361 7.77273 1.29545V7.77273H1.29545C0.580361 7.77273 0 8.35309 0 9.06818V9.93177C0 10.6469 0.580361 11.2272 1.29545 11.2272H7.77273V17.7045C7.77273 18.4196 8.35309 18.9999 9.06818 18.9999H9.93177C10.6469 18.9999 11.2272 18.4196 11.2272 17.7045V11.2272H17.7045C18.4196 11.2272 18.9999 10.6469 18.9999 9.93177V9.06818C18.9999 8.35309 18.4196 7.77273 17.7045 7.77273Z"
      fill="#ABBBA7"
    />
  </g>
  <defs>
    <clipPath id="clip0_2_890">
      <rect width="19" height="19" fill="white" />
    </clipPath>
  </defs>
</svg>
