<svg xmlns="http://www.w3.org/2000/svg" viewBox="0 0 31.11 31.11"><defs><style>.a{fill:#fff;}.b{fill:#1877f2;}</style></defs><path class="a" d="M31.11,15.56a15.56,15.56,0,1,0-18,15.36V20.05H9.18V15.56h3.94V12.13c0-3.9,2.33-6.05,5.88-6.05a24.2,24.2,0,0,1,3.48.3v3.83h-2A2.25,2.25,0,0,0,18,12.64v2.92H22.3l-.69,4.49H18V30.92A15.55,15.55,0,0,0,31.11,15.56Z"/><path class="b" d="M21.61,20.05l.69-4.49H18V12.64a2.25,2.25,0,0,1,2.53-2.43h2V6.38A24.2,24.2,0,0,0,19,6.08c-3.55,0-5.87,2.15-5.87,6.05v3.43h-4v4.49h4V30.92a15.63,15.63,0,0,0,4.86,0V20.05Z"/></svg>