<svg
  width="24"
  height="24"
  viewBox="0 0 24 24"
  fill="none"
  xmlns="http://www.w3.org/2000/svg"
>
  <path
    fill-rule="evenodd"
    clip-rule="evenodd"
    d="M20.5 23.5H3.5C2.119 23.5 1 22.381 1 21V1C1 0.724 1.2235 0.5 1.5 0.5H18.5C18.707 0.5 18.885 0.626 18.961 0.8055C18.986 0.865 19 0.931 19 1V8H22.5C22.7765 8 23 8.224 23 8.5V21C23 22.381 21.881 23.5 20.5 23.5ZM18 21V1.5H2V21C2 21.8285 2.672 22.5 3.5 22.5H18.511C18.195 22.081 18 21.5655 18 21ZM22 9H19V21C19 21.8285 19.6715 22.5 20.5 22.5C21.3285 22.5 22 21.8285 22 21V9ZM3.5 20C3.5 19.724 3.7235 19.5 4 19.5H8.5C8.7765 19.5 9 19.724 9 20C9 20.2765 8.7765 20.5 8.5 20.5H4C3.7235 20.5 3.5 20.2765 3.5 20ZM5.833 11.8575C5.6425 12.048 5.3335 12.048 5.1425 11.8575C4.952 11.667 4.952 11.3575 5.1425 11.167L8.095 8.2145C8.111 8.191 8.1215 8.164 8.1425 8.143C8.241 8.0445 8.371 7.999 8.5 8.002C8.629 7.999 8.759 8.044 8.8575 8.143C8.8785 8.164 8.8885 8.191 8.905 8.2145L11 10.3095L12.095 9.2145C12.111 9.191 12.1215 9.164 12.1425 9.143C12.241 9.0445 12.371 8.999 12.5 9.0025C12.629 8.999 12.759 9.0445 12.8575 9.143C12.8785 9.164 12.8885 9.191 12.905 9.2145L14.8575 11.167C15.048 11.3575 15.048 11.667 14.8575 11.8575C14.6665 12.048 14.3575 12.048 14.167 11.8575L12.5 10.1905L11.6905 11L11.8575 11.167C12.048 11.3575 12.048 11.667 11.8575 11.8575C11.667 12.048 11.3575 12.048 11.167 11.8575L8.5 9.1905L5.833 11.8575ZM11.5 14.5H16C16.2765 14.5 16.5 14.724 16.5 15C16.5 15.2765 16.2765 15.5 16 15.5H11.5C11.2235 15.5 11 15.2765 11 15C11 14.724 11.2235 14.5 11.5 14.5ZM11.5 17H16C16.2765 17 16.5 17.224 16.5 17.5C16.5 17.7765 16.2765 18 16 18H11.5C11.2235 18 11 17.7765 11 17.5C11 17.224 11.2235 17 11.5 17ZM11.5 19.5H16C16.2765 19.5 16.5 19.724 16.5 20C16.5 20.2765 16.2765 20.5 16 20.5H11.5C11.2235 20.5 11 20.2765 11 20C11 19.724 11.2235 19.5 11.5 19.5ZM12 7.75C12 8.1645 11.664 8.5 11.25 8.5C10.836 8.5 10.5 8.1645 10.5 7.75C10.5 7.3355 10.836 7 11.25 7C11.664 7 12 7.3355 12 7.75ZM13.5 5H6.5C6.2235 5 6 4.776 6 4.5C6 4.224 6.2235 4 6.5 4H13.5C13.7765 4 14 4.224 14 4.5C14 4.776 13.7765 5 13.5 5ZM4 17H8.5C8.7765 17 9 17.224 9 17.5C9 17.7765 8.7765 18 8.5 18H4C3.7235 18 3.5 17.7765 3.5 17.5C3.5 17.224 3.7235 17 4 17ZM9 15C9 15.2765 8.7765 15.5 8.5 15.5H4C3.7235 15.5 3.5 15.2765 3.5 15C3.5 14.724 3.7235 14.5 4 14.5H8.5C8.7765 14.5 9 14.724 9 15Z"
    fill="white"
  />
</svg>
