<svg
  width="24"
  height="26"
  viewBox="0 0 24 26"
  fill="none"
  xmlns="http://www.w3.org/2000/svg"
>
  <path
    d="M22.5 11.7391C22.3437 11.7381 22.1916 11.6861 22.065 11.5904L12 4.09304L1.93499 11.5904C1.77351 11.6902 1.58206 11.7232 1.39841 11.6829C1.21476 11.6426 1.05226 11.5319 0.943006 11.3727C0.833748 11.2135 0.785664 11.0173 0.808247 10.8229C0.83083 10.6285 0.922439 10.45 1.06499 10.3226L11.565 2.49652C11.692 2.40215 11.8441 2.35144 12 2.35144C12.1559 2.35144 12.308 2.40215 12.435 2.49652L22.935 10.3226C23.063 10.4193 23.1585 10.5558 23.2078 10.7126C23.2571 10.8693 23.2577 11.0383 23.2094 11.1954C23.1612 11.3524 23.0666 11.4896 22.9392 11.5873C22.8118 11.6849 22.6581 11.7381 22.5 11.7391Z"
    fill="white"
  />
  <path
    d="M3.75 7.04349C3.55109 7.04349 3.36032 6.96104 3.21967 6.81427C3.07902 6.6675 3 6.46844 3 6.26088V3.13045C3 2.92289 3.07902 2.72383 3.21967 2.57706C3.36032 2.43029 3.55109 2.34784 3.75 2.34784H6.75C6.94891 2.34784 7.13968 2.43029 7.28033 2.57706C7.42098 2.72383 7.5 2.92289 7.5 3.13045C7.5 3.33801 7.42098 3.53707 7.28033 3.68384C7.13968 3.8306 6.94891 3.91306 6.75 3.91306H4.5V6.26088C4.5 6.46844 4.42098 6.6675 4.28033 6.81427C4.13968 6.96104 3.94891 7.04349 3.75 7.04349Z"
    fill="white"
  />
  <path
    d="M18.75 22.6957H15C14.8011 22.6957 14.6103 22.6132 14.4697 22.4664C14.329 22.3197 14.25 22.1206 14.25 21.913V16.4348H9.75V21.913C9.75 22.1206 9.67098 22.3197 9.53033 22.4664C9.38968 22.6132 9.19891 22.6957 9 22.6957H5.25C4.65326 22.6957 4.08097 22.4483 3.65901 22.008C3.23705 21.5677 3 20.9705 3 20.3478V12.5217C3 12.3142 3.07902 12.1151 3.21967 11.9684C3.36032 11.8216 3.55109 11.7391 3.75 11.7391C3.94891 11.7391 4.13968 11.8216 4.28033 11.9684C4.42098 12.1151 4.5 12.3142 4.5 12.5217V20.3478C4.5 20.5554 4.57902 20.7545 4.71967 20.9012C4.86032 21.048 5.05109 21.1304 5.25 21.1304H8.25V15.6522C8.25 15.4446 8.32902 15.2456 8.46967 15.0988C8.61032 14.952 8.80109 14.8696 9 14.8696H15C15.1989 14.8696 15.3897 14.952 15.5303 15.0988C15.671 15.2456 15.75 15.4446 15.75 15.6522V21.1304H18.75C18.9489 21.1304 19.1397 21.048 19.2803 20.9012C19.421 20.7545 19.5 20.5554 19.5 20.3478V12.5217C19.5 12.3142 19.579 12.1151 19.7197 11.9684C19.8603 11.8216 20.0511 11.7391 20.25 11.7391C20.4489 11.7391 20.6397 11.8216 20.7803 11.9684C20.921 12.1151 21 12.3142 21 12.5217V20.3478C21 20.9705 20.7629 21.5677 20.341 22.008C19.919 22.4483 19.3467 22.6957 18.75 22.6957Z"
    fill="white"
  />
</svg>
