<svg
  width="211"
  height="241"
  viewBox="0 0 211 241"
  fill="none"
  xmlns="http://www.w3.org/2000/svg"
>
  <g clip-path="url(#clip0_5_52)">
    <path
      d="M106.885 158.596L136.255 190.166C128.273 197.578 117.781 201.698 106.885 201.701C83.2207 201.701 63.7495 182.244 63.7495 158.596C63.7495 134.949 83.2207 115.491 106.885 115.491C117.499 115.493 127.74 119.403 135.651 126.474L106.885 158.596Z"
      fill="#B48C51"
    />
    <path
      d="M107.894 189.632C125.127 189.632 139.098 175.671 139.098 158.45C139.098 141.228 125.127 127.267 107.894 127.267C90.6605 127.267 76.69 141.228 76.69 158.45C76.69 175.671 90.6605 189.632 107.894 189.632Z"
      fill="#D1D3D4"
    />
    <path
      d="M112.251 189.632C129.032 189.632 142.635 176.038 142.635 159.269C142.635 142.5 129.032 128.905 112.251 128.905C95.4698 128.905 81.8662 142.5 81.8662 159.269C81.8662 176.038 95.4698 189.632 112.251 189.632Z"
      fill="#E6E7E8"
    />
    <path
      d="M33.1968 201.701C33.1968 201.701 30.3801 108.129 58.5689 53.42C58.5689 53.42 56.1016 162.329 39.542 201.701H33.1968Z"
      fill="#587851"
    />
    <path
      d="M58.1678 61.1315C58.1678 61.1315 110.361 85.1281 107.178 111.181C107.178 111.181 139.422 90.611 107.32 70.0413C107.32 70.0413 44.343 47.4155 58.1678 54.9546V61.1315Z"
      fill="#587851"
    />
    <path
      d="M57.8486 60.2909C57.8486 60.2909 49.9376 40.0575 0 55.5321C0 55.5321 21.5676 21.8715 57.8486 49.7087V60.2909Z"
      fill="#587851"
    />
    <path
      d="M55.6314 56.1529C55.6314 56.1529 51.8442 30.1778 16.9737 28.4191C16.9737 28.4191 56.3216 20.5482 62.8868 57.3512L55.6314 56.1529Z"
      fill="#587851"
    />
    <path
      d="M75.1846 55.7434C75.1846 55.7434 83.1819 30.7425 117.867 34.7211C117.867 34.7211 80.3393 20.4964 67.8301 55.7434H75.1846Z"
      fill="#587851"
    />
    <path
      d="M56.9859 53.7304C56.9859 53.7304 30.9495 50.282 19.7343 83.3176C19.7343 83.3176 22.9091 43.3421 60.1304 47.0836L56.9859 53.7304Z"
      fill="#587851"
    />
    <path
      d="M56.1706 53.42C56.1706 53.42 57.8184 12.9013 35.2803 0C35.2803 0 83.4062 13.5091 62.5115 53.42H56.1706Z"
      fill="#587851"
    />
    <path
      d="M59.4403 58.64C59.4403 58.64 83.0827 26.2768 71.5181 1.4397C71.5181 1.4397 106.889 38.829 59.4403 58.64Z"
      fill="#587851"
    />
    <path
      d="M66.5015 61.2996C66.5015 61.2996 82.0302 46.881 116.323 67.8731C116.323 67.8731 119.088 30.8761 59.4705 55.0106L66.5015 61.2996Z"
      fill="#587851"
    />
    <path
      d="M57.2059 64.7739C60.3433 64.7739 62.8868 62.2322 62.8868 59.0969C62.8868 55.9617 60.3433 53.42 57.2059 53.42C54.0684 53.42 51.525 55.9617 51.525 59.0969C51.525 62.2322 54.0684 64.7739 57.2059 64.7739Z"
      fill="#587851"
    />
    <path
      d="M54.9542 59.7952C58.0917 59.7952 60.6351 57.2536 60.6351 54.1183C60.6351 50.983 58.0917 48.4414 54.9542 48.4414C51.8167 48.4414 49.2733 50.983 49.2733 54.1183C49.2733 57.2536 51.8167 59.7952 54.9542 59.7952Z"
      fill="#587851"
    />
    <path
      d="M60.6351 70.4508C63.7726 70.4508 66.316 67.9092 66.316 64.7739C66.316 61.6386 63.7726 59.097 60.6351 59.097C57.4976 59.097 54.9542 61.6386 54.9542 64.7739C54.9542 67.9092 57.4976 70.4508 60.6351 70.4508Z"
      fill="#587851"
    />
    <path
      d="M56.1792 76.132C59.3167 76.132 61.8601 73.5904 61.8601 70.4551C61.8601 67.3198 59.3167 64.7782 56.1792 64.7782C53.0418 64.7782 50.4983 67.3198 50.4983 70.4551C50.4983 73.5904 53.0418 76.132 56.1792 76.132Z"
      fill="#587851"
    />
    <path
      d="M49.4243 64.567C52.5618 64.567 55.1052 62.0253 55.1052 58.89C55.1052 55.7548 52.5618 53.2131 49.4243 53.2131C46.2868 53.2131 43.7434 55.7548 43.7434 58.89C43.7434 62.0253 46.2868 64.567 49.4243 64.567Z"
      fill="#587851"
    />
    <path
      d="M51.525 70.2439C54.6624 70.2439 57.2059 67.7023 57.2059 64.567C57.2059 61.4317 54.6624 58.89 51.525 58.89C48.3875 58.89 45.8441 61.4317 45.8441 64.567C45.8441 67.7023 48.3875 70.2439 51.525 70.2439Z"
      fill="#587851"
    />
    <path
      d="M62.8868 59.097C66.0242 59.097 68.5677 56.5553 68.5677 53.42C68.5677 50.2847 66.0242 47.7431 62.8868 47.7431C59.7493 47.7431 57.2059 50.2847 57.2059 53.42C57.2059 56.5553 59.7493 59.097 62.8868 59.097Z"
      fill="#587851"
    />
    <path
      d="M68.572 59.7952C71.7095 59.7952 74.2529 57.2536 74.2529 54.1183C74.2529 50.983 71.7095 48.4414 68.572 48.4414C65.4345 48.4414 62.8911 50.983 62.8911 54.1183C62.8911 57.2536 65.4345 59.7952 68.572 59.7952Z"
      fill="#587851"
    />
    <path
      d="M176.496 201.701C176.496 201.701 179.132 108.129 152.772 53.42C152.772 53.42 155.08 162.329 170.569 201.701H176.496Z"
      fill="#587851"
    />
    <path
      d="M152.966 61.1315C152.966 61.1315 104.353 85.1281 107.329 111.181C107.329 111.181 77.3025 90.611 107.195 70.0413C107.195 70.0413 165.859 47.4155 152.966 54.9546V61.1315Z"
      fill="#587851"
    />
    <path
      d="M153.151 60.291C153.151 60.291 161.062 40.0661 211 55.5494C211 55.5494 189.432 21.8887 153.151 49.7259V60.291Z"
      fill="#587851"
    />
    <path
      d="M155.369 56.1529C155.369 56.1529 159.16 30.1778 194.026 28.4234C194.026 28.4234 154.678 20.5525 148.113 57.3555L155.369 56.1529Z"
      fill="#587851"
    />
    <path
      d="M135.815 55.7434C135.815 55.7434 127.818 30.7425 93.1331 34.7211C93.1331 34.7211 130.661 20.4964 143.17 55.7434H135.815Z"
      fill="#587851"
    />
    <path
      d="M154.014 53.7304C154.014 53.7304 180.051 50.282 191.266 83.3176C191.266 83.3176 188.091 43.3421 150.874 47.0836L154.014 53.7304Z"
      fill="#587851"
    />
    <path
      d="M154.829 53.42C154.829 53.42 153.177 12.9013 175.72 0C175.72 0 127.598 13.5091 148.488 53.42H154.829Z"
      fill="#587851"
    />
    <path
      d="M151.56 58.64C151.56 58.64 127.917 26.2768 139.482 1.4397C139.482 1.4397 104.111 38.829 151.56 58.64Z"
      fill="#587851"
    />
    <path
      d="M144.499 61.2996C144.499 61.2996 128.97 46.881 94.6774 67.8731C94.6774 67.8731 91.9124 30.8761 151.534 55.0106L144.499 61.2996Z"
      fill="#587851"
    />
    <path
      d="M153.794 64.7739C156.932 64.7739 159.475 62.2322 159.475 59.0969C159.475 55.9617 156.932 53.42 153.794 53.42C150.657 53.42 148.113 55.9617 148.113 59.0969C148.113 62.2322 150.657 64.7739 153.794 64.7739Z"
      fill="#587851"
    />
    <path
      d="M156.046 59.7952C159.183 59.7952 161.727 57.2536 161.727 54.1183C161.727 50.983 159.183 48.4414 156.046 48.4414C152.908 48.4414 150.365 50.983 150.365 54.1183C150.365 57.2536 152.908 59.7952 156.046 59.7952Z"
      fill="#587851"
    />
    <path
      d="M150.365 70.4508C153.502 70.4508 156.046 67.9092 156.046 64.7739C156.046 61.6386 153.502 59.097 150.365 59.097C147.227 59.097 144.684 61.6386 144.684 64.7739C144.684 67.9092 147.227 70.4508 150.365 70.4508Z"
      fill="#587851"
    />
    <path
      d="M154.821 76.132C157.958 76.132 160.502 73.5904 160.502 70.4551C160.502 67.3198 157.958 64.7782 154.821 64.7782C151.683 64.7782 149.14 67.3198 149.14 70.4551C149.14 73.5904 151.683 76.132 154.821 76.132Z"
      fill="#587851"
    />
    <path
      d="M161.576 64.567C164.713 64.567 167.257 62.0253 167.257 58.89C167.257 55.7548 164.713 53.2131 161.576 53.2131C158.438 53.2131 155.895 55.7548 155.895 58.89C155.895 62.0253 158.438 64.567 161.576 64.567Z"
      fill="#587851"
    />
    <path
      d="M159.475 70.2439C162.613 70.2439 165.156 67.7023 165.156 64.567C165.156 61.4317 162.613 58.89 159.475 58.89C156.338 58.89 153.794 61.4317 153.794 64.567C153.794 67.7023 156.338 70.2439 159.475 70.2439Z"
      fill="#587851"
    />
    <path
      d="M148.113 59.097C151.251 59.097 153.794 56.5553 153.794 53.42C153.794 50.2847 151.251 47.7431 148.113 47.7431C144.976 47.7431 142.432 50.2847 142.432 53.42C142.432 56.5553 144.976 59.097 148.113 59.097Z"
      fill="#587851"
    />
    <path
      d="M142.432 59.7952C145.57 59.7952 148.113 57.2536 148.113 54.1183C148.113 50.983 145.57 48.4414 142.432 48.4414C139.295 48.4414 136.751 50.983 136.751 54.1183C136.751 57.2536 139.295 59.7952 142.432 59.7952Z"
      fill="#587851"
    />
    <path
      d="M30.6475 234.552C30.5988 235.188 30.3269 235.786 29.8797 236.241C29.404 236.733 28.8446 237.135 28.2277 237.431C27.5686 237.745 26.8732 237.977 26.1572 238.121C25.5154 238.262 24.8604 238.336 24.2031 238.34C22.5586 238.366 20.9385 237.942 19.5187 237.112C18.144 236.275 16.9444 235.18 15.9859 233.888C15.0054 232.539 14.2293 231.053 13.6825 229.478C13.1589 227.993 12.8481 226.442 12.7594 224.87C12.8193 226.485 13.1173 228.083 13.6437 229.612C14.1845 231.203 14.9609 232.704 15.9471 234.064C16.9072 235.379 18.1218 236.487 19.5187 237.323C20.9616 238.15 22.6003 238.574 24.2635 238.552C25.2283 238.552 26.1869 238.396 27.1018 238.09C28.0194 237.791 28.8906 237.364 29.6899 236.823C29.131 237.694 28.3114 238.367 27.3477 238.746C26.387 239.128 25.3621 239.322 24.3282 239.319C23.2593 239.322 22.197 239.151 21.1837 238.81C20.1582 238.476 19.1969 237.971 18.3411 237.315L18.1642 236.702C17.1257 236.071 16.2035 235.267 15.4381 234.323C14.6996 233.38 14.0809 232.349 13.5962 231.254C13.1313 230.144 12.7843 228.988 12.561 227.806C12.3563 226.614 12.2538 225.407 12.2547 224.198C12.253 222.924 12.3685 221.653 12.5998 220.4C12.8536 219.124 13.1996 217.868 13.635 216.641C13.5315 216.641 13.4841 216.603 13.4841 216.525C12.9484 217.691 12.5489 218.914 12.2935 220.172C12.035 221.434 11.9063 222.719 11.9096 224.008C11.9052 226.473 12.4012 228.913 13.3676 231.181C14.3303 233.436 15.8286 235.423 17.7329 236.97C16.7371 236.207 15.8452 235.317 15.0801 234.323C14.3447 233.336 13.7266 232.267 13.2382 231.138C12.753 229.985 12.3803 228.788 12.1253 227.564C11.896 226.336 11.7805 225.089 11.7802 223.84C11.7859 222.105 12.0179 220.377 12.4704 218.702C12.9296 216.998 13.6577 215.379 14.6271 213.904C15.5704 212.5 16.7992 211.311 18.2332 210.413C19.731 209.475 21.4699 208.994 23.2369 209.029C24.0757 209.025 24.9084 209.171 25.6956 209.46C26.4812 209.736 27.229 210.11 27.9214 210.572C28.6132 211.03 29.2563 211.557 29.8409 212.146C30.4577 212.732 31.0314 213.331 31.5663 213.947L30.7597 214.637C30.3862 214.499 30.0357 214.306 29.7201 214.064C29.4139 213.779 29.1335 213.499 28.8574 213.202L28.6245 213.469C28.9792 213.883 29.2886 214.334 29.5476 214.814C29.8264 215.277 29.9754 215.807 29.9789 216.348L29.5476 217.038C29.0832 216.954 28.6471 216.756 28.2794 216.46C27.792 216.077 27.2442 215.68 26.6273 215.271C26.0379 214.837 25.4229 214.44 24.7855 214.081C24.2432 213.745 23.6205 213.56 22.9824 213.546C22.2503 213.536 21.5304 213.735 20.9076 214.12C20.2933 214.529 19.7486 215.034 19.2944 215.615C18.7895 216.266 18.3652 216.975 18.0305 217.728C17.6929 218.515 17.4048 219.323 17.1678 220.146C16.9607 220.965 16.7968 221.771 16.6674 222.56C16.5721 223.234 16.5217 223.913 16.5165 224.594C16.5314 225.71 16.685 226.819 16.9737 227.896C17.3001 229.078 17.7786 230.212 18.3971 231.271C19.0089 232.272 19.8034 233.15 20.7394 233.858C21.6436 234.542 22.7499 234.906 23.8839 234.892C24.4381 234.892 24.9911 234.842 25.536 234.741C26.092 234.626 26.6244 234.418 27.1105 234.125L27.4167 234.474C26.4612 235.21 25.2846 235.602 24.078 235.586C22.8956 235.603 21.73 235.305 20.7006 234.724C21.1919 235.059 21.7378 235.305 22.3138 235.452C22.9381 235.63 23.5842 235.72 24.2333 235.72C25.4076 235.721 26.5558 235.374 27.5332 234.724L27.8783 235.224C28.1634 234.916 28.4866 234.645 28.8402 234.418C29.1877 234.152 29.5976 233.98 30.0307 233.918L30.6475 234.552ZM15.9816 226.84C16.1098 228.334 16.5507 229.785 17.2756 231.099C17.9792 232.389 18.9785 233.493 20.1916 234.323C18.9926 233.482 18.0169 232.362 17.349 231.06C16.651 229.744 16.1883 228.315 15.9816 226.84ZM42.9583 215.525C42.9842 215.65 43.1265 215.715 43.3897 215.715H43.4673C43.571 215.707 43.6751 215.72 43.7736 215.753C45.1618 216.189 46.4905 216.796 47.7291 217.559C49.0482 218.315 50.2512 219.258 51.3007 220.357C52.3764 221.421 53.2529 222.67 53.8888 224.043C54.5563 225.43 54.8985 226.951 54.8895 228.491C54.8859 231.235 53.8012 233.868 51.87 235.819C52.861 234.953 53.6476 233.878 54.1735 232.672C54.7657 231.386 55.0675 229.985 55.0577 228.569C55.0707 226.987 54.7163 225.425 54.0225 224.004C53.3479 222.593 52.454 221.298 51.374 220.167C50.3065 219.049 49.092 218.08 47.7636 217.288C46.5589 216.519 45.271 215.888 43.9245 215.409C44.9438 215.42 45.9496 215.642 46.8793 216.059C47.9233 216.505 48.9049 217.085 49.7995 217.784C50.7349 218.488 51.5847 219.3 52.3316 220.202C53.0914 221.05 53.7607 221.974 54.3287 222.961L54.0613 223.344C54.5707 224.112 54.9591 224.954 55.213 225.84C55.4969 226.734 55.6423 227.665 55.6444 228.603C55.6635 230.285 55.2331 231.941 54.3978 233.401C53.6551 234.729 52.648 235.89 51.4387 236.815C49.1497 238.52 46.3865 239.472 43.532 239.539C42.7971 239.538 42.0642 239.462 41.3451 239.31C40.5868 239.142 39.8511 238.885 39.1538 238.543V238.771C39.8333 239.174 40.5732 239.465 41.3451 239.634C42.0903 239.786 42.8489 239.864 43.6097 239.866C45.4825 239.859 47.3309 239.44 49.0231 238.638C50.7722 237.875 52.322 236.72 53.5523 235.263C52.3779 236.763 50.8661 237.965 49.1396 238.771C47.445 239.606 45.5809 240.04 43.6916 240.039C41.7448 240.039 40.1632 239.655 38.9467 238.888C37.7974 238.2 36.8241 237.254 36.1041 236.125C35.4492 235.052 34.9946 233.869 34.7626 232.633C34.5454 231.547 34.4299 230.443 34.4176 229.336C34.4155 228.041 34.5823 226.751 34.9136 225.499C35.2616 224.271 35.8064 223.106 36.5269 222.051C37.2673 220.986 38.2096 220.077 39.3005 219.374C40.5313 218.564 41.9159 218.015 43.3681 217.762L42.2552 217.495C41.8451 217.417 41.454 217.26 41.1035 217.034C40.8749 216.853 40.7584 216.702 40.7584 216.572C40.7584 216.37 40.9784 216.141 41.4098 215.922C41.8821 215.656 42.4162 215.519 42.9583 215.525ZM41.2329 220.357C41.8706 220.112 42.5468 219.982 43.2301 219.973C43.7347 219.944 44.2381 220.049 44.688 220.279C45.0461 220.46 45.2272 220.65 45.2272 220.857C45.2272 220.986 45.0719 221.124 44.7657 221.288C44.4594 221.452 44.11 221.659 43.6528 221.939C43.146 222.243 42.6577 222.577 42.1905 222.939C41.6358 223.394 41.1453 223.922 40.7325 224.508C40.2555 225.207 39.8808 225.971 39.6197 226.775C39.3181 227.795 39.1726 228.855 39.1883 229.918C39.1883 231.685 39.5851 233.016 40.3788 233.909C40.7962 234.363 41.3088 234.719 41.8801 234.952C42.4514 235.184 43.0671 235.287 43.683 235.254C44.6092 235.248 45.5284 235.092 46.4048 234.793C47.3177 234.509 48.1754 234.072 48.9412 233.5C49.6967 232.95 50.3249 232.245 50.783 231.431C51.2745 230.594 51.5266 229.638 51.512 228.668C51.5073 227.881 51.3612 227.101 51.0807 226.366C50.8191 225.585 50.4441 224.848 49.9678 224.176C49.4925 223.443 48.9257 222.774 48.2812 222.185C47.6451 221.574 46.9351 221.046 46.1676 220.611C45.5702 220.272 44.9554 219.964 44.3257 219.689C43.9614 219.523 43.6241 219.304 43.325 219.038C43.1222 219.137 42.8289 219.266 42.4623 219.422C42.0956 219.577 41.5996 219.754 41 220.034L41.2329 220.357ZM43.821 218.555C45.0287 218.953 46.1678 219.535 47.1985 220.279C48.108 220.961 48.9566 221.719 49.7349 222.547C49.0067 221.689 48.1962 220.905 47.315 220.206C46.3171 219.385 45.1886 218.737 43.9763 218.288L43.821 218.555ZM51.2705 231.638C50.8803 232.464 50.3323 233.207 49.6572 233.823C50.1072 233.527 50.4978 233.15 50.8089 232.711C51.1224 232.309 51.3928 231.876 51.6155 231.418C51.7993 231.033 51.9536 230.636 52.0771 230.228C52.1547 229.892 52.2151 229.625 52.2669 229.422C51.9621 230.08 51.6242 230.819 51.2532 231.638H51.2705ZM53.8586 234.935C53.8284 234.992 53.7907 235.044 53.7464 235.09C53.7367 235.102 53.7248 235.111 53.7115 235.118C53.6982 235.124 53.6836 235.128 53.6688 235.129C53.6429 235.129 53.7076 235 53.8586 234.745C54.0095 234.491 54.1907 234.142 54.3978 233.784C54.6048 233.426 54.8291 233.004 55.0491 232.595C55.204 232.341 55.3326 232.072 55.433 231.793C55.0537 232.913 54.5116 233.972 53.8241 234.935H53.8586ZM56.0153 228.724C56.0151 229.133 55.9892 229.542 55.9377 229.948C55.8889 230.316 55.7992 230.677 55.6702 231.026C55.8559 230.322 55.9458 229.597 55.9377 228.87C55.9386 228.292 55.8867 227.715 55.7824 227.146C55.7078 226.666 55.6055 226.191 55.4761 225.724C55.6055 226.185 55.7177 226.646 55.8212 227.107C55.9401 227.638 55.9922 228.181 55.9765 228.724H56.0153ZM43.8426 217.947L43.4975 217.792C43.4672 217.85 43.4279 217.902 43.381 217.947C43.3376 217.986 43.3112 218.04 43.3077 218.098C43.3172 218.18 43.3421 218.259 43.381 218.331L43.5751 218.521L43.8426 217.947ZM49.9462 222.823C49.8776 222.727 49.8011 222.638 49.7176 222.555C49.7884 222.649 49.8647 222.738 49.9462 222.823ZM55.3985 231.801C55.4234 231.753 55.4367 231.7 55.4373 231.646C55.4354 231.697 55.4222 231.747 55.3985 231.793V231.801ZM55.4761 231.569C55.4648 231.578 55.4556 231.59 55.4489 231.604C55.4422 231.617 55.4383 231.631 55.4373 231.646C55.4371 231.63 55.4405 231.614 55.4472 231.599C55.4539 231.584 55.4638 231.571 55.4761 231.56V231.569ZM77.6519 236.595C76.5221 237.057 75.3527 237.416 74.158 237.668C72.972 237.926 71.7614 238.055 70.5476 238.052C69.4363 238.055 68.3286 237.926 67.2477 237.668C66.2012 237.426 65.2026 237.011 64.293 236.44C63.3746 235.86 62.568 235.119 61.9119 234.254C61.2092 233.254 60.6893 232.138 60.3763 230.957C60.4252 231.991 60.7418 232.995 61.2951 233.87C61.8393 234.669 62.5145 235.37 63.2922 235.944C64.1276 236.513 65.0302 236.976 65.9796 237.323C66.8989 237.658 67.8347 237.946 68.7833 238.185C68.9615 238.215 69.142 238.228 69.3225 238.224C70.7008 238.236 72.0768 238.107 73.429 237.84C74.6569 237.582 75.9107 237.313 77.1904 237.034C76.7321 237.387 76.2287 237.677 75.6936 237.896C75.0806 238.141 74.4524 238.345 73.8129 238.509C73.1163 238.668 72.4104 238.783 71.6993 238.853C70.9618 238.957 70.2181 239.008 69.4735 239.009H69.0421C68.9132 239.008 68.7846 238.995 68.6582 238.97L68.3908 238.47C67.4068 238.352 66.4399 238.121 65.5094 237.78C64.5182 237.425 63.5872 236.921 62.7487 236.284C61.9189 235.608 61.2164 234.789 60.6739 233.866C60.1196 232.857 59.8414 231.72 59.8673 230.569C59.869 229.531 60.0141 228.498 60.2986 227.5C60.5811 226.495 60.9536 225.519 61.4115 224.581C61.3956 224.595 61.3772 224.606 61.3572 224.612C61.3372 224.619 61.3161 224.622 61.2951 224.62C61.2217 224.62 61.1829 224.568 61.1829 224.465C60.7184 225.395 60.3206 226.358 59.9924 227.344C59.6712 228.393 59.5154 229.485 59.5308 230.582C59.513 231.726 59.8115 232.854 60.3935 233.84C60.9233 234.749 61.5979 235.566 62.3907 236.258C63.1381 236.867 63.9478 237.394 64.8063 237.832C65.4035 238.129 66.0204 238.385 66.6525 238.599C65.8141 238.35 65.0033 238.017 64.2326 237.603C63.3619 237.143 62.5604 236.563 61.8515 235.879C61.1531 235.154 60.5711 234.325 60.1261 233.422C59.658 232.454 59.4203 231.39 59.4316 230.314C59.4222 228.762 59.7228 227.223 60.3159 225.788C60.8668 224.441 61.6607 223.206 62.6581 222.146C63.5998 221.117 64.734 220.282 65.9968 219.689C67.2287 219.087 68.581 218.772 69.9523 218.766C70.2366 218.713 70.5257 218.688 70.815 218.693C71.173 218.667 71.4663 218.654 71.6993 218.654C72.5145 218.831 73.3341 219.051 74.1537 219.305C75.0232 219.57 75.8608 219.93 76.6512 220.379C76.5499 220.428 76.4679 220.51 76.4183 220.611C76.3853 220.711 76.3608 220.814 76.3449 220.917C76.3193 221.019 76.2655 221.112 76.1897 221.185C76.1523 221.228 76.1047 221.261 76.0512 221.281C75.9978 221.302 75.9401 221.308 75.8834 221.301C75.6864 221.288 75.492 221.249 75.3054 221.185C75.0509 221.107 74.6929 220.995 74.2313 220.84C74.1899 220.887 74.1583 220.941 74.1383 221C74.1183 221.06 74.1103 221.122 74.1148 221.185C74.6357 221.407 75.0775 221.781 75.383 222.258C75.597 222.59 75.7163 222.975 75.7281 223.37C75.7281 223.551 75.5383 223.706 75.1544 223.831C74.6255 223.809 74.0991 223.745 73.58 223.642C72.8068 223.506 72.0228 223.441 71.2377 223.448C70.8139 223.45 70.3905 223.476 69.9696 223.525C69.5027 223.553 69.04 223.629 68.5892 223.754C68.1361 223.858 67.7003 224.026 67.2952 224.254C66.8964 224.454 66.5539 224.75 66.2988 225.116C65.9691 225.548 65.6802 226.01 65.4361 226.495C65.1787 227.007 64.9483 227.532 64.7459 228.069C64.5489 228.556 64.3818 229.056 64.2455 229.564C64.1496 229.989 64.0976 230.422 64.0902 230.857C64.1268 231.309 64.3015 231.737 64.5906 232.086C64.9598 232.559 65.3858 232.984 65.8588 233.353C66.4208 233.751 67.0256 234.085 67.6618 234.349C68.3187 234.626 69.0235 234.773 69.7366 234.78C70.1379 234.771 70.5371 234.719 70.9272 234.625C71.4103 234.526 71.8977 234.409 72.3851 234.28C72.8726 234.151 73.3945 234 73.8819 233.896C74.2854 233.804 74.6974 233.753 75.1113 233.745C75.3096 233.718 75.5114 233.758 75.685 233.858C75.7885 233.909 75.8403 234.026 75.8403 234.202C75.2493 234.409 74.6368 234.612 73.9984 234.819C73.567 234.944 73.1917 235.073 72.8078 235.202L73.9984 234.896C74.6109 234.715 75.2234 234.526 75.8403 234.319V234.664C75.8851 234.796 75.9639 234.915 76.0689 235.008L76.4528 234.858C76.6787 234.77 76.8978 234.667 77.1084 234.547C77.4608 234.52 77.8148 234.573 78.1437 234.702C78.2348 234.74 78.3127 234.804 78.3672 234.886C78.4218 234.968 78.4506 235.065 78.4499 235.164C78.4519 235.283 78.4253 235.401 78.3723 235.508C78.3358 235.605 78.2849 235.695 78.2213 235.776C78.1695 235.853 78.0919 235.957 77.9884 236.082C77.8568 236.236 77.7439 236.405 77.6519 236.586V236.595ZM63.715 231.982C63.9454 232.479 64.2574 232.934 64.6381 233.327C65.0584 233.745 65.521 234.117 66.0184 234.439C66.5578 234.746 67.1237 235.002 67.7093 235.207C68.2509 235.406 68.8195 235.522 69.3959 235.552C68.8459 235.49 68.3056 235.361 67.7869 235.168C67.2013 234.964 66.6354 234.707 66.096 234.401C65.5903 234.074 65.1153 233.701 64.6769 233.289C64.2885 232.907 63.9638 232.466 63.715 231.982ZM72.5447 235.207C72.6198 235.181 72.6984 235.168 72.7777 235.168C72.6984 235.168 72.6198 235.181 72.5447 235.207ZM66.7862 238.621C66.7334 238.621 66.6815 238.607 66.6352 238.582C66.6815 238.607 66.7334 238.621 66.7862 238.621ZM89.6478 215.525C89.6737 215.65 89.8117 215.715 90.0792 215.715H90.1525C90.2576 215.707 90.3631 215.72 90.4631 215.753C91.8499 216.189 93.1772 216.796 94.4143 217.559C95.7334 218.315 96.9363 219.258 97.9858 220.357C99.0616 221.421 99.9381 222.67 100.574 224.043C101.244 225.429 101.586 226.951 101.575 228.491C101.578 229.862 101.303 231.22 100.768 232.482C100.25 233.729 99.4942 234.862 98.5423 235.819C99.5306 234.95 100.317 233.876 100.846 232.672C101.429 231.383 101.723 229.983 101.708 228.569C101.721 226.987 101.367 225.425 100.673 224.004C99.9985 222.593 99.1046 221.298 98.0247 220.167C96.9581 219.048 95.7434 218.079 94.4143 217.288C93.2101 216.518 91.9221 215.887 90.5752 215.409C91.5958 215.42 92.6031 215.642 93.5343 216.059C94.5769 216.505 95.5571 217.085 96.4502 217.784C97.3879 218.487 98.2393 219.299 98.9866 220.202C99.745 221.05 100.413 221.974 100.979 222.961L100.712 223.344C101.219 224.112 101.602 224.954 101.846 225.84C102.13 226.734 102.276 227.665 102.278 228.603C102.313 230.278 101.902 231.932 101.087 233.396C100.346 234.724 99.3405 235.886 98.1325 236.81C96.9527 237.707 95.628 238.395 94.2158 238.845C92.9293 239.285 91.5811 239.517 90.2215 239.534C89.4866 239.534 88.7537 239.457 88.0346 239.306C87.2778 239.137 86.5438 238.88 85.8476 238.539V238.771C86.5255 239.175 87.2639 239.466 88.0346 239.634C88.7798 239.786 89.5384 239.864 90.2992 239.866C92.1721 239.86 94.0205 239.44 95.7126 238.638C97.4617 237.875 99.0115 236.72 100.242 235.263C99.0607 236.765 97.5414 237.967 95.8075 238.771C94.1112 239.606 92.2458 240.039 90.3552 240.039C88.4113 240.039 86.8368 239.655 85.6319 238.888C84.4838 238.198 83.5109 237.253 82.7893 236.125C82.1344 235.052 81.6798 233.869 81.4478 232.633C81.2306 231.547 81.1151 230.443 81.1027 229.336C81.1007 228.041 81.2675 226.751 81.5988 225.499C81.9486 224.271 82.4933 223.107 83.2121 222.051C83.9491 220.984 84.8885 220.071 85.977 219.366C87.2097 218.556 88.5956 218.007 90.049 217.753L88.9318 217.486C88.5217 217.408 88.1305 217.252 87.7801 217.025C87.5515 216.844 87.435 216.693 87.435 216.564C87.435 216.361 87.655 216.133 88.0906 215.913C88.5634 215.649 89.0978 215.515 89.6392 215.525H89.6478ZM87.9224 220.357C88.5602 220.112 89.2364 219.982 89.9196 219.973C90.4242 219.944 90.9276 220.049 91.3775 220.279C91.7356 220.46 91.9167 220.65 91.9167 220.857C91.9167 220.986 91.7614 221.124 91.4552 221.288C91.1489 221.452 90.8038 221.659 90.3423 221.939C89.8363 222.242 89.3494 222.576 88.8843 222.939C88.3271 223.392 87.8351 223.92 87.422 224.508C86.9484 225.209 86.5739 225.972 86.3092 226.775C86.0076 227.795 85.8621 228.855 85.8778 229.918C85.8778 231.685 86.2747 233.016 87.0683 233.909C87.4857 234.363 87.9983 234.719 88.5696 234.952C89.1409 235.184 89.7566 235.287 90.3725 235.254C91.3001 235.248 92.2206 235.092 93.0986 234.793C94.0098 234.508 94.8659 234.071 95.6307 233.5C96.3869 232.951 97.0153 232.245 97.4725 231.431C97.9653 230.594 98.2189 229.638 98.2058 228.668C98.199 227.881 98.0529 227.102 97.7745 226.366C97.5093 225.587 97.1346 224.85 96.6616 224.176C96.1848 223.443 95.6166 222.774 94.9707 222.185C94.3346 221.574 93.6246 221.046 92.8571 220.611C92.2597 220.272 91.6449 219.964 91.0152 219.689C90.6516 219.524 90.3155 219.305 90.0188 219.038C89.8117 219.137 89.5184 219.266 89.1345 219.422C88.7506 219.577 88.2718 219.754 87.6765 220.034L87.9224 220.357ZM90.5105 218.555C91.7196 218.953 92.8602 219.535 93.8923 220.279C94.7995 220.962 95.6466 221.72 96.4244 222.547C95.6962 221.689 94.8857 220.905 94.0045 220.206C93.0066 219.385 91.8781 218.737 90.6658 218.288L90.5105 218.555ZM97.96 231.638C97.5713 232.465 97.0231 233.208 96.3467 233.823C96.7967 233.527 97.1874 233.15 97.4984 232.711C97.8134 232.31 98.0839 231.877 98.3051 231.418C98.4907 231.034 98.645 230.636 98.7666 230.228C98.8442 229.892 98.9089 229.625 98.9607 229.422C98.6559 230.08 98.3122 230.819 97.9298 231.638H97.96ZM100.548 234.935C100.518 234.993 100.479 235.045 100.432 235.09C100.422 235.102 100.41 235.111 100.397 235.118C100.383 235.124 100.369 235.128 100.354 235.129C100.328 235.129 100.393 235 100.548 234.745C100.703 234.491 100.88 234.142 101.083 233.784C101.286 233.426 101.514 233.004 101.734 232.595C101.891 232.342 102.02 232.073 102.118 231.793C101.738 232.914 101.194 233.973 100.505 234.935H100.548ZM102.705 228.724C102.705 229.133 102.679 229.542 102.627 229.948C102.581 230.316 102.491 230.678 102.36 231.026C102.545 230.322 102.635 229.597 102.627 228.87C102.627 228.292 102.577 227.715 102.476 227.146C102.4 226.666 102.296 226.191 102.166 225.724C102.295 226.185 102.412 226.646 102.511 227.107C102.625 227.638 102.673 228.181 102.653 228.724H102.705ZM90.5321 217.947L90.187 217.792C90.1584 217.85 90.1205 217.902 90.0749 217.947C90.052 217.966 90.0332 217.989 90.0199 218.015C90.0065 218.041 89.9988 218.069 89.9972 218.098C90.0066 218.18 90.0331 218.26 90.0749 218.331L90.2646 218.521L90.5321 217.947ZM96.6271 222.823C96.5571 222.727 96.4792 222.638 96.3942 222.555C96.4664 222.649 96.5442 222.738 96.6271 222.823ZM102.075 231.801C102.1 231.753 102.113 231.7 102.114 231.646C102.112 231.697 102.099 231.747 102.075 231.793V231.801ZM102.153 231.569C102.141 231.578 102.132 231.59 102.125 231.604C102.119 231.617 102.115 231.631 102.114 231.646C102.114 231.63 102.117 231.614 102.124 231.599C102.13 231.584 102.14 231.571 102.153 231.56V231.569Z"
      fill="#5F7754"
    />
    <path
      d="M118.898 224.349L118.82 224.232C118.813 223.892 118.749 223.555 118.63 223.236C118.524 222.871 118.395 222.513 118.246 222.163C118.094 221.804 117.913 221.456 117.707 221.124L117.207 220.129L116.939 219.973C117.244 220.711 117.59 221.43 117.975 222.129C118.328 222.747 118.514 223.447 118.514 224.159L118.708 224.392L118.359 224.237V224.008C117.901 223.111 117.453 222.142 117.017 221.09C116.581 220.038 116.185 219.034 115.749 218.137C115.493 219.861 115.174 221.575 114.791 223.28C114.413 224.972 113.925 226.638 113.329 228.267C112.821 229.642 112.205 230.975 111.487 232.254C110.764 233.526 110.161 234.862 109.684 236.246L109.378 236.017L108.946 236.09C108.843 236.07 108.751 236.012 108.687 235.927C108.623 235.843 108.593 235.739 108.601 235.633C108.609 235.385 108.646 235.139 108.714 234.901C108.791 234.593 108.882 234.287 108.985 233.983C109.11 233.676 109.24 233.379 109.369 233.12C109.499 232.862 109.598 232.573 109.675 232.392L109.33 232.276C109.253 232.431 109.063 232.776 108.752 233.314C108.442 233.853 108.153 234.401 107.795 234.961C107.488 235.489 107.154 236.001 106.794 236.496C106.462 236.957 106.207 237.19 106.026 237.19C105.898 237.109 105.803 236.985 105.759 236.84C105.712 236.692 105.686 236.539 105.681 236.383C105.721 235.406 105.889 234.438 106.182 233.504C106.538 232.326 106.948 231.112 107.411 229.862C107.872 228.569 108.33 227.34 108.791 226.137C109.253 224.935 109.654 223.926 109.904 223.12C110.137 222.405 110.335 221.637 110.521 220.818C110.706 219.999 110.892 219.133 111.017 218.288C111.142 217.443 111.302 216.564 111.401 215.702C111.5 214.84 111.595 214.055 111.673 213.288C112.206 212.9 112.803 212.608 113.437 212.426C114.205 212.193 114.909 211.95 115.55 211.697C116.921 212.811 118.123 214.118 119.118 215.577C120.167 217.126 121.044 218.785 121.732 220.525C122.213 219.793 122.636 219.023 122.996 218.223C123.407 217.378 123.778 216.516 124.108 215.637C124.439 214.758 124.76 213.85 125.07 212.913C125.375 212.016 125.683 211.184 125.994 210.417C126.645 210.211 127.311 210.057 127.986 209.956C128.707 209.857 129.41 209.74 130.1 209.611C130.79 211.048 131.443 212.417 132.058 213.719C132.674 215.021 133.243 216.331 133.766 217.65C134.31 218.968 134.785 220.313 135.19 221.68C135.624 223.06 136.008 224.543 136.342 226.129C136.493 226.948 136.687 227.78 136.915 228.625C137.144 229.469 137.347 230.275 137.532 231.116C137.718 231.957 137.903 232.806 138.028 233.651C138.183 234.485 138.261 235.332 138.261 236.181C138.25 236.291 138.21 236.397 138.145 236.487C138.108 236.557 138.053 236.616 137.985 236.657C137.918 236.698 137.84 236.72 137.761 236.72C137.35 234.314 136.902 231.935 136.419 229.582C135.933 227.283 135.331 224.994 134.612 222.715C135.256 224.991 135.807 227.255 136.264 229.508C136.75 231.833 137.173 234.198 137.532 236.603L136.993 236.909C137.045 237.22 137.109 237.539 137.187 237.871C137.259 238.185 137.297 238.505 137.299 238.828C137.299 238.905 137.299 239.06 137.26 239.289C137.26 239.546 137.235 239.803 137.187 240.056C137.169 240.284 137.103 240.506 136.993 240.707C136.915 240.914 136.803 241.017 136.648 241.017C136.547 241.003 136.451 240.969 136.365 240.915C136.279 240.862 136.205 240.791 136.148 240.707C135.972 240.494 135.818 240.262 135.69 240.017C135.561 239.763 135.431 239.509 135.306 239.25C135.181 238.991 135.125 238.819 135.073 238.715C134.918 237.026 134.649 235.145 134.267 233.073C133.884 231.001 133.453 228.892 132.973 226.745C132.461 224.596 131.871 222.524 131.204 220.529C130.644 218.709 129.963 216.928 129.168 215.197L129.134 215.387C129.952 217.13 130.657 218.924 131.243 220.758C131.835 222.577 132.347 224.432 132.779 226.323C133.21 228.214 133.581 230.106 133.892 232C134.196 233.893 134.465 235.773 134.698 237.638C134.174 236.485 133.741 235.293 133.404 234.073C133.099 232.846 132.819 231.63 132.563 230.426C132.33 229.198 132.089 227.974 131.834 226.745C131.58 225.517 131.308 224.275 130.95 223.021L131.217 222.254C130.858 221.208 130.487 220.172 130.104 219.146C129.745 218.123 129.322 217.124 128.836 216.154L128.685 216.538C128.398 217.305 128.04 218.2 127.611 219.223C127.171 220.256 126.658 221.255 126.075 222.215C125.509 223.157 124.84 224.034 124.078 224.827C123.438 225.544 122.615 226.075 121.697 226.362C121.158 226.03 120.61 225.719 120.045 225.439C119.48 225.159 118.958 224.827 118.393 224.517V224.288L119.929 225.15C120.442 225.431 120.955 225.724 121.464 226.012L121.775 225.935C122.729 225.4 123.618 224.757 124.423 224.017C125.1 223.391 125.692 222.681 126.188 221.905C126.697 221.088 127.122 220.221 127.456 219.318C127.838 218.344 128.27 217.243 128.75 216.016L128.595 215.672L128.439 216.016L127.788 217.516C127.535 218.129 127.216 218.792 126.83 219.508C126.468 220.202 126.063 220.917 125.601 221.663C125.139 222.409 124.738 223.042 124.255 223.659C123.841 224.199 123.365 224.688 122.836 225.116C122.444 225.437 121.958 225.625 121.451 225.65L118.898 224.349ZM132.106 215.064C132.03 214.854 131.939 214.649 131.834 214.452C131.709 214.167 131.567 213.887 131.403 213.59C131.239 213.292 131.144 213.038 131.019 212.784C130.894 212.529 130.786 212.296 130.708 212.167L131.14 213.357L132.002 215.124L132.106 215.064ZM128.073 215.219L126.779 218.667C127.033 218.129 127.262 217.59 127.469 217.055C127.676 216.521 127.9 215.982 128.12 215.443L128.073 215.219ZM127.076 211.689L127.577 212.952L127.766 212.917L127.296 211.689H127.076ZM112.065 213.758L111.988 214.909C111.981 215.256 111.955 215.603 111.91 215.947L112.341 213.684L112.065 213.758ZM125.196 214.564L126.192 212.184H126.041L125.196 214.564ZM130.609 211.956L129.725 210.499L129.802 210.93L130.609 211.956ZM128.957 214.758L128.879 214.909L129.035 215.219L129.073 215.025L128.957 214.758ZM154.618 228.551C153.928 228.551 153.406 228.551 153.044 228.513C152.681 228.474 152.405 228.474 152.125 228.474C151.444 228.469 150.764 228.507 150.089 228.59C149.565 228.646 149.057 228.803 148.592 229.051C148.186 229.276 147.863 229.625 147.669 230.047C147.445 230.593 147.34 231.181 147.363 231.771C147.322 232.565 147.439 233.359 147.708 234.108C147.937 234.564 148.299 234.94 148.747 235.185C149.271 235.404 149.828 235.534 150.395 235.569C151.121 235.632 151.842 235.747 152.552 235.914C153.013 235.965 153.471 236.004 153.932 236.026H158.077C156.801 235.954 155.521 235.917 154.238 235.914C153.092 235.898 151.949 235.782 150.822 235.569C149.93 235.409 149.089 235.04 148.368 234.491C148.046 234.198 147.795 233.835 147.635 233.43C147.475 233.025 147.41 232.589 147.445 232.155C147.412 231.501 147.516 230.848 147.751 230.237C147.935 229.826 148.235 229.479 148.614 229.237C149.022 229 149.483 228.869 149.955 228.853C150.504 228.8 151.056 228.774 151.607 228.775C152.338 228.776 153.068 228.815 153.794 228.892C153.203 229.076 152.601 229.22 151.991 229.323C151.404 229.4 150.852 229.487 150.339 229.59C149.88 229.655 149.431 229.771 148.997 229.935C148.688 230.024 148.426 230.232 148.269 230.513V232.237L147.962 232.392C148.061 233.03 148.152 233.517 148.23 233.849C148.299 234.018 148.403 234.17 148.536 234.295C148.668 234.421 148.825 234.517 148.997 234.577C149.633 234.78 150.29 234.909 150.956 234.961C151.875 235.064 153.207 235.233 154.946 235.461H157.711C157.999 235.475 158.288 235.462 158.574 235.422C158.634 235.387 158.699 235.36 158.768 235.345L158.418 233.276C158.371 232.763 158.306 232.301 158.228 231.892C158.151 231.482 158.047 231.03 157.922 230.599C157.896 230.672 157.819 230.711 157.689 230.711C157.823 231.165 157.927 231.627 158 232.095C158.099 232.577 158.177 233.039 158.228 233.474C158.28 233.909 158.358 234.28 158.384 234.586C158.394 234.774 158.446 234.958 158.535 235.125L158.306 235.202C158.232 235.232 158.153 235.246 158.073 235.241H157.845C157.64 235.24 157.435 235.227 157.232 235.202C156.948 235.147 156.659 235.121 156.369 235.125H155.101C154.177 235.129 153.254 235.077 152.336 234.97C151.638 234.888 150.947 234.76 150.266 234.586C150.977 234.734 151.698 234.836 152.422 234.892C153.251 234.991 154.085 235.043 154.92 235.047H155.955C156.338 235.021 156.747 235.008 157.185 235.008H158.448C158.415 234.971 158.373 234.942 158.327 234.922C158.281 234.902 158.231 234.892 158.181 234.892H158.103C158.011 233.189 157.78 231.497 157.413 229.832C157.102 228.331 156.517 226.9 155.688 225.612C154.908 224.397 153.84 223.394 152.578 222.693C151.104 221.905 149.447 221.522 147.777 221.581C147.237 221.582 146.698 221.62 146.164 221.698C145.629 221.775 145.077 221.874 144.516 222.004C144.538 221.984 144.556 221.96 144.569 221.934C144.581 221.907 144.588 221.878 144.589 221.848C144.589 221.784 144.575 221.72 144.549 221.66C144.523 221.601 144.485 221.548 144.438 221.504C144.343 221.398 144.288 221.262 144.283 221.12C144.283 220.969 144.438 220.827 144.744 220.689C145.415 220.46 146.112 220.315 146.819 220.258C146.759 220.194 146.719 220.115 146.703 220.029V219.805C145.322 219.805 144.244 219.779 143.476 219.728C142.708 219.676 142.324 219.46 142.324 219.15C142.324 219.025 142.48 218.844 142.786 218.616C143.216 218.337 143.682 218.117 144.171 217.96C144.855 217.706 145.561 217.514 146.28 217.387C147.203 217.2 148.142 217.11 149.084 217.12C150.818 217.076 152.543 217.388 154.152 218.038C155.482 218.576 156.684 219.387 157.681 220.417C158.65 221.384 159.443 222.513 160.023 223.754C160.626 224.973 161.116 226.246 161.485 227.556C161.858 228.76 162.14 229.99 162.326 231.237C162.507 232.415 162.674 233.438 162.827 234.306V234.767C162.854 234.944 162.867 235.123 162.865 235.302C162.877 235.979 162.73 236.649 162.434 237.259C162.183 237.794 161.8 238.256 161.321 238.603C160.838 239.005 160.275 239.299 159.669 239.465C159.024 239.674 158.35 239.777 157.672 239.772C157.097 239.772 156.368 239.759 155.485 239.733C154.618 239.71 153.754 239.634 152.897 239.504C152.314 239.367 151.723 239.263 151.128 239.194C150.469 239.14 149.814 239.038 149.17 238.888C148.499 238.733 147.845 238.516 147.216 238.237C146.571 237.935 145.996 237.504 145.525 236.97C144.991 236.296 144.587 235.529 144.335 234.707C144.023 233.57 143.878 232.394 143.903 231.215C143.843 230.08 144.169 228.958 144.826 228.03C145.401 227.244 146.149 226.601 147.013 226.15C147.839 225.705 148.735 225.406 149.662 225.267C150.385 225.132 151.118 225.056 151.853 225.038C152.332 225.007 152.812 225.06 153.272 225.193C153.501 225.293 153.617 225.396 153.617 225.499C153.62 225.565 153.607 225.63 153.578 225.689C152.94 225.689 152.12 225.715 151.12 225.767C150.131 225.818 149.153 225.986 148.204 226.267C147.325 226.519 146.513 226.96 145.823 227.56C145.484 227.86 145.219 228.234 145.046 228.652C144.874 229.07 144.798 229.522 144.826 229.974C144.997 229.14 145.395 228.37 145.978 227.75C146.518 227.201 147.174 226.782 147.898 226.521C148.597 226.244 149.334 226.075 150.084 226.021C150.852 225.948 151.542 225.909 152.159 225.909H153.453C153.409 225.947 153.372 225.994 153.346 226.046C153.32 226.099 153.305 226.156 153.302 226.215C153.305 226.268 153.319 226.32 153.346 226.367C153.372 226.413 153.409 226.453 153.453 226.482H154.95C155.285 226.524 155.596 226.676 155.834 226.913C155.986 227.038 156.083 227.218 156.102 227.413C156.098 227.536 156.065 227.655 156.004 227.762C155.944 227.868 155.859 227.959 155.757 228.025C155.408 228.265 155.024 228.449 154.618 228.569V228.551ZM148.169 237.836C148.878 238.116 149.61 238.333 150.356 238.487C151.105 238.638 151.863 238.741 152.625 238.793C153.313 238.868 154.004 238.906 154.696 238.909C154.178 238.856 153.665 238.767 153.16 238.642L151.741 238.297C151.316 238.196 150.883 238.131 150.447 238.103C150.037 238.052 149.584 237.987 149.153 237.914C148.697 237.83 148.247 237.715 147.807 237.569C147.315 237.373 146.851 237.113 146.427 236.797C146.936 237.255 147.527 237.614 148.169 237.853V237.836ZM148.553 233.806L148.782 234.039C148.957 234.201 149.168 234.319 149.399 234.383C149.269 234.332 149.079 234.267 148.821 234.189C148.562 234.112 148.389 233.935 148.389 233.728L148.553 233.806ZM173.882 239.043C173.598 239.098 173.309 239.124 173.019 239.121H171.907C171.421 239.086 170.934 239.165 170.483 239.349C170.344 239.449 170.189 239.526 170.026 239.578L169.871 238.888V238.198L169.676 234.59C169.611 233.836 169.467 233.09 169.245 232.366C169.014 231.572 168.833 230.765 168.706 229.948C168.628 229.413 168.564 228.9 168.512 228.413L168.361 226.918C168.309 226.409 168.244 225.883 168.167 225.344C168.11 224.765 168.02 224.189 167.899 223.62V223.159C167.925 223.006 167.938 222.852 167.938 222.698C167.939 221.913 167.874 221.13 167.744 220.357C167.628 219.588 167.46 218.827 167.239 218.081C167.402 218.008 167.569 217.945 167.74 217.891C167.872 217.818 168.02 217.778 168.171 217.775C168.3 217.775 168.443 217.93 168.602 218.236C168.844 218.814 169.012 219.419 169.103 220.038C169.18 220.034 169.257 220.021 169.331 219.999C169.403 219.958 169.482 219.931 169.564 219.922C169.534 219.458 169.469 218.997 169.37 218.542C169.271 218.029 169.167 217.547 169.064 217.085C168.96 216.624 168.861 216.223 168.758 215.857C168.69 215.554 168.651 215.245 168.641 214.934V214.745C168.656 214.706 168.683 214.674 168.718 214.653C168.753 214.631 168.795 214.623 168.835 214.628C168.96 214.628 169.129 214.771 169.331 215.059C169.575 215.401 169.794 215.76 169.987 216.133C170.229 216.595 170.447 217.07 170.638 217.555C170.867 218.038 171.07 218.499 171.251 218.935C171.812 217.795 172.611 216.788 173.593 215.982C174.607 215.252 175.839 214.886 177.087 214.943C177.966 214.915 178.843 215.045 179.675 215.327C180.232 215.501 180.752 215.774 181.211 216.133C181.525 216.34 181.787 216.615 181.979 216.939L182.207 217.322C182.21 217.392 182.189 217.46 182.148 217.516C182.106 217.572 182.046 217.612 181.979 217.628C181.326 217 180.557 216.505 179.714 216.172C178.882 215.842 177.995 215.672 177.1 215.672C176.429 215.634 175.759 215.752 175.142 216.016C174.696 216.247 174.264 216.503 173.848 216.784C174.277 216.509 174.725 216.266 175.189 216.055C175.794 215.852 176.432 215.761 177.07 215.788C177.961 215.785 178.843 215.968 179.658 216.327C180.432 216.629 181.147 217.067 181.767 217.62C181.645 217.67 181.529 217.735 181.422 217.814C181.381 217.844 181.349 217.885 181.328 217.932C181.308 217.979 181.3 218.03 181.306 218.081C181.392 218.093 181.476 218.122 181.55 218.168C181.625 218.214 181.688 218.276 181.737 218.348C181.908 218.519 182.053 218.714 182.168 218.926C182.299 219.156 182.401 219.4 182.475 219.654C182.566 219.834 182.619 220.031 182.63 220.232C182.63 220.663 182.462 220.883 182.13 220.883C181.807 220.864 181.493 220.772 181.211 220.616C181.023 220.499 180.854 220.353 180.71 220.185C180.446 219.896 180.149 219.639 179.826 219.417C179.446 219.12 179.035 218.863 178.601 218.65C178.124 218.415 177.598 218.297 177.066 218.305C176.636 218.296 176.211 218.401 175.836 218.611C175.482 218.806 175.169 219.066 174.913 219.379C174.616 219.705 174.359 220.066 174.145 220.452L173.645 221.374C174.01 220.71 174.435 220.079 174.913 219.491C175.129 219.182 175.417 218.931 175.751 218.758C176.085 218.584 176.456 218.494 176.833 218.495C177.476 218.49 178.11 218.649 178.674 218.956C179.207 219.211 179.679 219.577 180.059 220.029C179.628 219.848 179.11 219.672 178.524 219.491C177.976 219.32 177.406 219.23 176.833 219.223C176.576 219.217 176.323 219.284 176.104 219.417C175.895 219.548 175.712 219.716 175.564 219.913C175.439 220.094 175.31 220.297 175.181 220.529C175.083 220.755 174.967 220.973 174.835 221.18L174.339 221.258C173.872 222.078 173.509 222.955 173.261 223.866C173.002 224.868 172.873 225.9 172.877 226.935C172.877 227.573 172.903 228.15 172.955 228.659C173.007 229.168 173.136 229.694 173.261 230.232L173.723 231.418L173.645 230.306C173.593 229.444 173.546 228.672 173.494 228.004C173.442 227.336 173.416 226.56 173.416 225.741C173.464 225.031 173.567 224.327 173.723 223.633C173.844 223.085 174.038 222.556 174.301 222.06C173.976 222.722 173.768 223.435 173.684 224.168C173.555 225.083 173.491 226.006 173.494 226.931C173.493 227.661 173.53 228.39 173.606 229.116C173.684 229.81 173.774 230.5 173.878 231.189C173.981 231.879 174.132 232.595 174.262 233.345C174.391 234.095 174.49 234.858 174.568 235.724L174.684 236.452L174.913 238.642L173.882 239.043ZM174.339 221.892L174.227 222.086L174.339 221.892ZM198.767 219.439C198.444 219.45 198.122 219.487 197.805 219.551C197.422 219.629 197.026 219.719 196.614 219.823C196.231 219.922 195.872 220.025 195.54 220.129C195.342 220.185 195.15 220.262 194.967 220.357C195.631 220.254 196.261 220.142 196.809 220.012C197.41 219.856 198.029 219.779 198.65 219.784C198.533 220.002 198.36 220.187 198.15 220.318C197.936 220.453 197.703 220.558 197.46 220.629L196.692 220.779C196.394 220.809 196.098 220.86 195.808 220.935L195.54 220.59C195.177 220.729 194.806 220.845 194.427 220.935C194.159 220.961 193.89 220.974 193.621 220.973H192.663C192.353 220.948 192.008 220.935 191.624 220.935C191.627 221.038 191.614 221.141 191.585 221.241H193.086C193.491 221.215 193.992 221.163 194.583 221.086C194.018 221.189 193.517 221.267 193.086 221.318C192.588 221.375 192.086 221.401 191.585 221.396C191.486 221.982 191.395 222.56 191.317 223.12C191.241 223.667 191.202 224.219 191.201 224.771C191.201 225.078 191.214 225.436 191.24 225.844C191.266 226.252 191.292 226.675 191.317 227.112C191.369 227.52 191.408 227.916 191.434 228.301C191.46 228.659 191.473 228.926 191.473 229.107V231.409C191.551 231.677 191.694 231.921 191.887 232.121C192.081 232.322 192.321 232.472 192.586 232.56C193.437 232.853 194.335 232.983 195.234 232.944H196.463C196.759 232.919 197.056 232.971 197.326 233.095C197.402 233.116 197.469 233.161 197.518 233.223C197.567 233.285 197.595 233.361 197.598 233.439C197.598 233.569 197.494 233.646 197.292 233.672H196.675C195.892 233.669 195.109 233.618 194.333 233.517C193.565 233.414 192.81 233.301 192.068 233.172C192.81 233.35 193.591 233.517 194.41 233.672C195.224 233.795 196.046 233.859 196.869 233.862H197.214C197.33 233.86 197.446 233.847 197.559 233.823V234.168C197.589 234.286 197.628 234.401 197.676 234.513L197.982 234.439C198.068 234.412 198.159 234.399 198.249 234.401C198.335 234.384 198.414 234.344 198.478 234.284C199.297 234.362 199.707 234.642 199.707 235.146C199.719 235.397 199.638 235.643 199.479 235.836C199.321 236.022 199.124 236.169 198.901 236.267C198.656 236.376 198.398 236.453 198.133 236.496C197.852 236.521 197.585 236.534 197.326 236.534C196.441 236.534 195.557 236.484 194.678 236.383L192.184 236C193.071 236.292 193.984 236.497 194.911 236.612C196.017 236.766 197.132 236.842 198.249 236.84C197.942 237.037 197.606 237.182 197.253 237.271C196.865 237.375 196.464 237.428 196.062 237.427L193.297 237.082C192.939 237.03 192.659 236.978 192.435 236.927L191.9 236.776C191.719 236.698 191.516 236.621 191.283 236.543C191.05 236.465 190.783 236.379 190.399 236.276V235.845C189.786 235.696 189.228 235.376 188.79 234.922C188.39 234.508 188.065 234.028 187.828 233.504C187.605 233.016 187.45 232.499 187.366 231.97C187.295 231.5 187.258 231.026 187.254 230.551V229.362C187.28 228.978 187.289 228.594 187.289 228.211C187.289 227.931 187.289 227.573 187.254 227.137C187.22 226.702 187.254 226.241 187.215 225.754C187.176 225.267 187.163 224.771 187.138 224.258V221.961C187.163 221.706 187.189 221.473 187.215 221.271H186.831C186.804 221.474 186.791 221.678 186.793 221.883V222.573C186.793 223.318 186.793 224.06 186.831 224.801C186.87 225.543 186.87 226.181 186.87 226.793C186.87 227.405 186.918 227.948 186.944 228.405C186.969 228.862 186.982 229.159 186.982 229.366V231.207C186.905 230.517 186.831 229.53 186.754 228.254C186.676 226.771 186.637 225.133 186.637 223.34V221.844C186.651 221.649 186.69 221.456 186.754 221.271L185.46 221.193C185.189 221.019 184.899 220.874 184.597 220.762C184.352 220.667 184.092 220.616 183.829 220.611V219.844C183.826 219.715 183.839 219.586 183.868 219.46C183.92 219.331 184.049 219.266 184.252 219.266C184.382 219.281 184.51 219.307 184.636 219.344V218.9C184.362 218.751 184.126 218.542 183.946 218.288C183.775 218.032 183.682 217.733 183.678 217.426C183.678 216.762 184.153 216.426 185.097 216.426C185.47 216.427 185.841 216.453 186.21 216.503C186.593 216.555 186.99 216.594 187.401 216.62C187.504 216.055 187.595 215.559 187.668 215.124C187.742 214.689 187.823 214.228 187.901 213.831C187.979 213.434 188.065 212.969 188.169 212.564C188.272 212.158 188.401 211.702 188.552 211.223C188.79 210.693 188.971 210.14 189.092 209.572C189.215 208.977 189.304 208.376 189.359 207.77L190.166 207.809C190.279 207.806 190.389 207.848 190.472 207.926C190.575 207.999 190.627 208.18 190.627 208.46C190.618 208.771 190.579 209.079 190.511 209.383L190.972 209.495C191.135 208.901 191.38 208.334 191.701 207.809C192.008 207.378 192.301 207.158 192.586 207.158C193.017 207.158 193.289 207.706 193.392 208.805V209.495C193.395 210.126 193.343 210.756 193.237 211.378C193.159 211.939 193.06 212.503 192.931 213.064C192.801 213.624 192.676 214.202 192.547 214.788C192.417 215.374 192.301 216.012 192.202 216.706C192.748 216.779 193.298 216.816 193.849 216.818H194.617C194.876 216.792 195.131 216.779 195.385 216.779C195.68 216.767 195.963 216.66 196.192 216.473C196.41 216.295 196.678 216.188 196.959 216.167C197.046 216.161 197.133 216.175 197.214 216.209C197.294 216.243 197.365 216.295 197.421 216.361C197.524 216.481 197.579 216.634 197.576 216.792C197.115 216.922 196.653 217.064 196.192 217.223L194.928 217.607C195.366 217.552 195.798 217.462 196.222 217.34C196.683 217.189 197.171 217.047 197.68 216.909V217.253C197.71 217.371 197.749 217.486 197.796 217.598C197.862 217.595 197.927 217.584 197.99 217.564C198.077 217.53 198.167 217.504 198.258 217.486C198.482 217.581 198.661 217.759 198.758 217.982C198.835 218.178 198.873 218.388 198.87 218.598C198.871 218.768 198.846 218.936 198.797 219.098C198.766 219.209 198.755 219.325 198.767 219.439ZM188.591 233.599C188.252 232.971 188.056 232.277 188.018 231.564C187.992 230.901 187.953 230.271 187.901 229.685L187.556 223.853L187.44 224.543C187.44 226.267 187.491 227.827 187.595 229.224C187.671 230.313 187.85 231.393 188.13 232.448C188.137 232.603 188.124 232.758 188.091 232.909V233.099C188.098 233.17 188.125 233.237 188.169 233.293C188.301 233.406 188.442 233.509 188.591 233.599ZM190.783 231.526C190.73 231.313 190.704 231.094 190.705 230.875V228.995L190.627 229.763C190.601 230.004 190.588 230.248 190.588 230.491C190.576 231.005 190.615 231.519 190.705 232.026C190.776 232.323 190.937 232.591 191.166 232.793C191.041 232.647 190.949 232.477 190.895 232.293C190.869 232.086 190.83 231.827 190.783 231.521V231.526ZM187.056 231.487L187.017 231.219L187.056 231.487ZM191.24 232.832C191.221 232.81 191.195 232.796 191.166 232.793C191.194 232.795 191.22 232.807 191.24 232.827V232.832Z"
      fill="#AF8D5B"
    />
  </g>
  <defs>
    <clipPath id="clip0_5_52">
      <rect width="211" height="241" fill="white" />
    </clipPath>
  </defs>
</svg>
