<svg
  width="24"
  height="24"
  viewBox="0 0 24 24"
  fill="none"
  xmlns="http://www.w3.org/2000/svg"
>
  <path
    d="M15.5 1V2H21.1L11.95 9.4L6.50001 5.9L1.20001 9.6L1.80001 10.4L6.50001 7.1L12.05 10.6L22 2.55V8.5H23V1H15.5Z"
    fill="white"
  />
  <path d="M2 13H1V23H2V13Z" fill="white" />
  <path d="M5.5 11H4.5V23H5.5V11Z" fill="white" />
  <path d="M23 13H22V23H23V13Z" fill="white" />
  <path d="M19.5 11H18.5V23H19.5V11Z" fill="white" />
  <path d="M16 13H15V23H16V13Z" fill="white" />
  <path d="M12.5 16H11.5V23H12.5V16Z" fill="white" />
  <path d="M9 13H8V23H9V13Z" fill="white" />
</svg>
